# xmcd
#
# Track frame offsets: 
#        150
#        11024
#        23670
#        34519
#        50284
#        64471
#        83238
#        99854
#        114440
#        128904
#        144654
#
# Disc length: 2240 seconds
#
# Revision: 0
# Processed by: cddbd v1.5.2PL0 Copyright (c) Steve Scherf et al.
# Submitted via: ExactAudioCopyFreeDBPlugin 1.0
#
DISCID=8808be0b
DTITLE=Spencer Thomas - Gulf Coast Charms
DYEAR=2010
DGENRE=Blues
TTITLE0=I Had A Dream Last Night
TTITLE1=May Be Her Slave
TTITLE2=Better Off
TTITLE3=Mad About Sugar
TTITLE4=Bird In Hand
TTITLE5=Nothing Takes The Place Of You
TTITLE6=You Belong To Me
TTITLE7=Wine Head Baby
TTITLE8=Tears In The Wishin' Well
TTITLE9=I'm So Tired
TTITLE10=I Wonder Why
EXTD=
EXTT0=
EXTT1=
EXTT2=
EXTT3=
EXTT4=
EXTT5=
EXTT6=
EXTT7=
EXTT8=
EXTT9=
EXTT10=
PLAYORDER=
